Input #0, lavfi, from 'rgbtestsrc=duration=60:size=1920x1080:rate=30':
  Duration: N/A, start: 0.000000, bitrate: N/A
  Stream #0:0: Video: rawvideo (RGBA / 0x41424752), rgba, 1920x1080 [SAR 1:1 DAR 16:9], 30 tbr, 30 tbn, 30 tbc
Stream mapping:
  Stream #0:0 -> #0:0 (rawvideo (native) -> h264 (h264_nvenc))
Press [q] to stop, [?] for help
Output #0, mp4, to './test_results/temp_tests_gpu/test_test_50_47/output.mp4':
  Metadata:
    encoder         : Lavf58.76.100
  Stream #0:0: Video: h264 (Main) (avc1 / 0x31637661), rgb0(pc, gbr/unknown/unknown, progressive), 1280x720 [SAR 1:1 DAR 16:9], q=2-31, 30 fps, 15360 tbn
    Metadata:
      encoder         : Lavc58.134.100 h264_nvenc
    Side data:
      cpb: bitrate max/min/avg: 3000000/0/0 buffer size: 4000000 vbv_delay: N/A
frame=    1 fps=0.0 q=0.0 size=       0kB time=00:00:00.00 bitrate=N/A speed=   0x    frame=    2 fps=0.3 q=0.0 size=       0kB time=00:00:00.00 bitrate=N/A speed=   0x    frame=   13 fps=2.0 q=23.0 size=       0kB time=00:00:00.33 bitrate=   1.2kbits/s speed=0.0505x    frame=   26 fps=3.7 q=23.0 size=       0kB time=00:00:00.76 bitrate=   0.5kbits/s speed=0.108x    frame=   39 fps=5.1 q=23.0 size=       0kB time=00:00:01.20 bitrate=   0.3kbits/s speed=0.158x    frame=   53 fps=6.5 q=23.0 size=       0kB time=00:00:01.66 bitrate=   0.2kbits/s speed=0.205x    frame=   66 fps=7.6 q=23.0 size=       0kB time=00:00:02.10 bitrate=   0.2kbits/s speed=0.243x    frame=   80 fps=8.7 q=23.0 size=       0kB time=00:00:02.56 bitrate=   0.1kbits/s speed=0.28x    frame=   95 fps=9.8 q=23.0 size=       0kB time=00:00:03.06 bitrate=   0.1kbits/s speed=0.317x    frame=  110 fps= 11 q=23.0 size=       0kB time=00:00:03.56 bitrate=   0.1kbits/s speed=0.35x    frame=  126 fps= 12 q=23.0 size=       0kB time=00:00:04.10 bitrate=   0.1kbits/s speed=0.383x    frame=  142 fps= 13 q=23.0 size=       0kB time=00:00:04.63 bitrate=   0.1kbits/s speed=0.414x    frame=  159 fps= 14 q=23.0 size=       0kB time=00:00:05.20 bitrate=   0.1kbits/s speed=0.444x    frame=  176 fps= 14 q=23.0 size=       0kB time=00:00:05.76 bitrate=   0.1kbits/s speed=0.472x    frame=  194 fps= 15 q=23.0 size=       0kB time=00:00:06.36 bitrate=   0.1kbits/s speed= 0.5x    frame=  213 fps= 16 q=23.0 size=       0kB time=00:00:07.00 bitrate=   0.1kbits/s speed=0.528x    frame=  233 fps= 17 q=23.0 size=       0kB time=00:00:07.66 bitrate=   0.1kbits/s speed=0.557x    frame=  253 fps= 18 q=23.0 size=       0kB time=00:00:08.33 bitrate=   0.0kbits/s speed=0.583x    frame=  273 fps= 18 q=23.0 size=       0kB time=00:00:09.00 bitrate=   0.0kbits/s speed=0.607x    frame=  293 fps= 19 q=23.0 size=       0kB time=00:00:09.66 bitrate=   0.0kbits/s speed=0.63x    frame=  313 fps= 20 q=23.0 size=       0kB time=00:00:10.33 bitrate=   0.0kbits/s speed=0.652x    frame=  332 fps= 20 q=23.0 size=       0kB time=00:00:10.96 bitrate=   0.0kbits/s speed=0.67x    frame=  350 fps= 21 q=23.0 size=       0kB time=00:00:11.56 bitrate=   0.0kbits/s speed=0.686x    frame=  367 fps= 21 q=23.0 size=       0kB time=00:00:12.13 bitrate=   0.0kbits/s speed=0.698x    frame=  386 fps= 22 q=23.0 size=       0kB time=00:00:12.76 bitrate=   0.0kbits/s speed=0.714x    frame=  404 fps= 22 q=23.0 size=       0kB time=00:00:13.36 bitrate=   0.0kbits/s speed=0.726x    frame=  422 fps= 22 q=23.0 size=       0kB time=00:00:13.96 bitrate=   0.0kbits/s speed=0.739x    frame=  441 fps= 23 q=23.0 size=       0kB time=00:00:14.60 bitrate=   0.0kbits/s speed=0.752x    frame=  460 fps= 23 q=23.0 size=       0kB time=00:00:15.23 bitrate=   0.0kbits/s speed=0.764x    frame=  479 fps= 23 q=23.0 size=       0kB time=00:00:15.86 bitrate=   0.0kbits/s speed=0.776x    frame=  498 fps= 24 q=23.0 size=       0kB time=00:00:16.50 bitrate=   0.0kbits/s speed=0.787x    frame=  517 fps= 24 q=23.0 size=       0kB time=00:00:17.13 bitrate=   0.0kbits/s speed=0.798x    frame=  536 fps= 24 q=23.0 size=       0kB time=00:00:17.76 bitrate=   0.0kbits/s speed=0.808x    frame=  555 fps= 25 q=23.0 size=       0kB time=00:00:18.40 bitrate=   0.0kbits/s speed=0.818x    frame=  574 fps= 25 q=23.0 size=       0kB time=00:00:19.03 bitrate=   0.0kbits/s speed=0.827x    frame=  592 fps= 25 q=23.0 size=       0kB time=00:00:19.63 bitrate=   0.0kbits/s speed=0.835x    frame=  611 fps= 25 q=23.0 size=       0kB time=00:00:20.26 bitrate=   0.0kbits/s speed=0.844x    frame=  630 fps= 26 q=23.0 size=       0kB time=00:00:20.90 bitrate=   0.0kbits/s speed=0.853x    frame=  650 fps= 26 q=23.0 size=       0kB time=00:00:21.56 bitrate=   0.0kbits/s speed=0.861x    frame=  670 fps= 26 q=23.0 size=       0kB time=00:00:22.23 bitrate=   0.0kbits/s speed=0.87x    frame=  690 fps= 26 q=23.0 size=       0kB time=00:00:22.90 bitrate=   0.0kbits/s speed=0.878x    frame=  710 fps= 27 q=23.0 size=       0kB time=00:00:23.56 bitrate=   0.0kbits/s speed=0.886x    frame=  729 fps= 27 q=23.0 size=       0kB time=00:00:24.20 bitrate=   0.0kbits/s speed=0.893x    frame=  749 fps= 27 q=23.0 size=       0kB time=00:00:24.86 bitrate=   0.0kbits/s speed= 0.9x    frame=  769 fps= 27 q=23.0 size=       0kB time=00:00:25.53 bitrate=   0.0kbits/s speed=0.907x    frame=  789 fps= 28 q=23.0 size=       0kB time=00:00:26.20 bitrate=   0.0kbits/s speed=0.914x    frame=  808 fps= 28 q=23.0 size=       0kB time=00:00:26.83 bitrate=   0.0kbits/s speed=0.92x    frame=  827 fps= 28 q=23.0 size=       0kB time=00:00:27.46 bitrate=   0.0kbits/s speed=0.926x    frame=  846 fps= 28 q=23.0 size=       0kB time=00:00:28.10 bitrate=   0.0kbits/s speed=0.931x    frame=  865 fps= 28 q=23.0 size=       0kB time=00:00:28.73 bitrate=   0.0kbits/s speed=0.936x    frame=  884 fps= 28 q=23.0 size=       0kB time=00:00:29.36 bitrate=   0.0kbits/s speed=0.941x    frame=  903 fps= 28 q=19.0 size=       0kB time=00:00:30.00 bitrate=   0.0kbits/s speed=0.946x    frame=  920 fps= 29 q=23.0 size=       0kB time=00:00:30.56 bitrate=   0.0kbits/s speed=0.948x    frame=  937 fps= 29 q=23.0 size=       0kB time=00:00:31.13 bitrate=   0.0kbits/s speed=0.951x    frame=  955 fps= 29 q=23.0 size=       0kB time=00:00:31.73 bitrate=   0.0kbits/s speed=0.954x    frame=  973 fps= 29 q=23.0 size=       0kB time=00:00:32.33 bitrate=   0.0kbits/s speed=0.958x    frame=  991 fps= 29 q=23.0 size=       0kB time=00:00:32.93 bitrate=   0.0kbits/s speed=0.961x    frame= 1009 fps= 29 q=23.0 size=       0kB time=00:00:33.53 bitrate=   0.0kbits/s speed=0.964x    frame= 1027 fps= 29 q=23.0 size=       0kB time=00:00:34.13 bitrate=   0.0kbits/s speed=0.967x    frame= 1045 fps= 29 q=23.0 size=       0kB time=00:00:34.73 bitrate=   0.0kbits/s speed=0.97x    frame= 1063 fps= 29 q=23.0 size=       0kB time=00:00:35.33 bitrate=   0.0kbits/s speed=0.973x    frame= 1080 fps= 29 q=23.0 size=       0kB time=00:00:35.90 bitrate=   0.0kbits/s speed=0.975x    frame= 1098 fps= 29 q=23.0 size=       0kB time=00:00:36.50 bitrate=   0.0kbits/s speed=0.977x    frame= 1116 fps= 29 q=23.0 size=       0kB time=00:00:37.10 bitrate=   0.0kbits/s speed=0.979x    frame= 1133 fps= 30 q=23.0 size=       0kB time=00:00:37.66 bitrate=   0.0kbits/s speed=0.981x    frame= 1151 fps= 30 q=23.0 size=       0kB time=00:00:38.26 bitrate=   0.0kbits/s speed=0.983x    frame= 1169 fps= 30 q=23.0 size=       0kB time=00:00:38.86 bitrate=   0.0kbits/s speed=0.986x    frame= 1188 fps= 30 q=23.0 size=       0kB time=00:00:39.50 bitrate=   0.0kbits/s speed=0.989x    frame= 1207 fps= 30 q=23.0 size=       0kB time=00:00:40.13 bitrate=   0.0kbits/s speed=0.991x    frame= 1226 fps= 30 q=23.0 size=       0kB time=00:00:40.76 bitrate=   0.0kbits/s speed=0.994x    frame= 1245 fps= 30 q=23.0 size=       0kB time=00:00:41.40 bitrate=   0.0kbits/s speed=0.997x    frame= 1264 fps= 30 q=23.0 size=       0kB time=00:00:42.03 bitrate=   0.0kbits/s speed=   1x    frame= 1282 fps= 30 q=23.0 size=       0kB time=00:00:42.63 bitrate=   0.0kbits/s speed=   1x    frame= 1300 fps= 30 q=23.0 size=       0kB time=00:00:43.23 bitrate=   0.0kbits/s speed=   1x    frame= 1319 fps= 30 q=23.0 size=       0kB time=00:00:43.86 bitrate=   0.0kbits/s speed=1.01x    frame= 1337 fps= 30 q=23.0 size=       0kB time=00:00:44.46 bitrate=   0.0kbits/s speed=1.01x    frame= 1355 fps= 30 q=23.0 size=       0kB time=00:00:45.06 bitrate=   0.0kbits/s speed=1.01x    frame= 1373 fps= 30 q=23.0 size=       0kB time=00:00:45.66 bitrate=   0.0kbits/s speed=1.01x    frame= 1391 fps= 30 q=23.0 size=       0kB time=00:00:46.26 bitrate=   0.0kbits/s speed=1.01x    frame= 1409 fps= 31 q=23.0 size=       0kB time=00:00:46.86 bitrate=   0.0kbits/s speed=1.02x    frame= 1428 fps= 31 q=23.0 size=       0kB time=00:00:47.50 bitrate=   0.0kbits/s speed=1.02x    frame= 1447 fps= 31 q=23.0 size=       0kB time=00:00:48.13 bitrate=   0.0kbits/s speed=1.02x    frame= 1466 fps= 31 q=23.0 size=       0kB time=00:00:48.76 bitrate=   0.0kbits/s speed=1.02x    frame= 1484 fps= 31 q=23.0 size=       0kB time=00:00:49.36 bitrate=   0.0kbits/s speed=1.02x    frame= 1502 fps= 31 q=23.0 size=       0kB time=00:00:49.96 bitrate=   0.0kbits/s speed=1.03x    frame= 1520 fps= 31 q=23.0 size=       0kB time=00:00:50.56 bitrate=   0.0kbits/s speed=1.03x    frame= 1538 fps= 31 q=23.0 size=       0kB time=00:00:51.16 bitrate=   0.0kbits/s speed=1.03x    frame= 1557 fps= 31 q=23.0 size=       0kB time=00:00:51.80 bitrate=   0.0kbits/s speed=1.03x    frame= 1575 fps= 31 q=23.0 size=       0kB time=00:00:52.40 bitrate=   0.0kbits/s speed=1.03x    frame= 1594 fps= 31 q=23.0 size=       0kB time=00:00:53.03 bitrate=   0.0kbits/s speed=1.03x    frame= 1612 fps= 31 q=23.0 size=       0kB time=00:00:53.63 bitrate=   0.0kbits/s speed=1.04x    frame= 1631 fps= 31 q=23.0 size=       0kB time=00:00:54.26 bitrate=   0.0kbits/s speed=1.04x    frame= 1650 fps= 31 q=23.0 size=       0kB time=00:00:54.90 bitrate=   0.0kbits/s speed=1.04x    frame= 1669 fps= 31 q=23.0 size=       0kB time=00:00:55.53 bitrate=   0.0kbits/s speed=1.04x    frame= 1688 fps= 31 q=23.0 size=       0kB time=00:00:56.16 bitrate=   0.0kbits/s speed=1.04x    frame= 1707 fps= 31 q=23.0 size=       0kB time=00:00:56.80 bitrate=   0.0kbits/s speed=1.04x    frame= 1725 fps= 31 q=23.0 size=       0kB time=00:00:57.40 bitrate=   0.0kbits/s speed=1.05x    frame= 1743 fps= 31 q=19.0 size=       0kB time=00:00:58.00 bitrate=   0.0kbits/s speed=1.05x    frame= 1762 fps= 32 q=23.0 size=       0kB time=00:00:58.63 bitrate=   0.0kbits/s speed=1.05x    frame= 1781 fps= 32 q=23.0 size=       0kB time=00:00:59.26 bitrate=   0.0kbits/s speed=1.05x    frame= 1800 fps= 32 q=23.0 size=       0kB time=00:00:59.90 bitrate=   0.0kbits/s speed=1.05x    [mp4 @ 0x583864f4d6c0] Starting second pass: moving the moov atom to the beginning of the file
frame= 1800 fps= 32 q=23.0 Lsize=     159kB time=00:00:59.96 bitrate=  21.7kbits/s speed=1.05x    
video:151kB audio:0kB subtitle:0kB other streams:0kB global headers:0kB muxing overhead: 5.300566%
